ISO-10303-21;
HEADER;
/* Generated by software containing ST-Developer
 * from STEP Tools, Inc. (www.steptools.com) 
 */
/* OPTION: using custom renumber hook */

FILE_DESCRIPTION(
/* description */ ('STEP AP242 Edition 2',
'CAx-IF Rec.Pracs.---Representation and Presentation of Product Manufa
cturing Information (PMI)---4.0---2014-10-13',
'CAx-IF Rec.Pracs.---3D Tessellated Geometry---0.4---2014-09-14','2;1',
'CAx-IF Rec.Pracs.---User Defined Attributes---1.5---2016-08-15'),
/* implementation_level */ '2;1');

FILE_NAME(
/* name */ 'Bottom Case',
/* time_stamp */ '2026-08-12T02:01:51Z',
/* author */ (''),
/* organization */ (''),
/* preprocessor_version */ 'ST-DEVELOPER v20',
/* originating_system */ 'ONSHAPE BY PTC INC, 1.219',
/* authorisation */ '  ');

FILE_SCHEMA (('AP242_MANAGED_MODEL_BASED_3D_ENGINEERING_MIM_LF { 1 0 10303 442 3 1 4 }'));
ENDSEC;

DATA;
#10=SHAPE_REPRESENTATION_RELATIONSHIP('','',#497,#11);
#11=ADVANCED_BREP_SHAPE_REPRESENTATION('',(#495),#775);
#12=ORIENTED_EDGE('',*,*,#144,.T.);
#13=ORIENTED_EDGE('',*,*,#145,.T.);
#14=ORIENTED_EDGE('',*,*,#146,.F.);
#15=ORIENTED_EDGE('',*,*,#147,.T.);
#16=ORIENTED_EDGE('',*,*,#148,.F.);
#17=ORIENTED_EDGE('',*,*,#149,.T.);
#18=ORIENTED_EDGE('',*,*,#150,.T.);
#19=ORIENTED_EDGE('',*,*,#151,.F.);
#20=ORIENTED_EDGE('',*,*,#152,.F.);
#21=ORIENTED_EDGE('',*,*,#153,.F.);
#22=ORIENTED_EDGE('',*,*,#154,.F.);
#23=ORIENTED_EDGE('',*,*,#155,.F.);
#24=ORIENTED_EDGE('',*,*,#156,.T.);
#25=ORIENTED_EDGE('',*,*,#157,.T.);
#26=ORIENTED_EDGE('',*,*,#158,.F.);
#27=ORIENTED_EDGE('',*,*,#159,.T.);
#28=ORIENTED_EDGE('',*,*,#160,.T.);
#29=ORIENTED_EDGE('',*,*,#161,.F.);
#30=ORIENTED_EDGE('',*,*,#162,.F.);
#31=ORIENTED_EDGE('',*,*,#163,.T.);
#32=ORIENTED_EDGE('',*,*,#164,.F.);
#33=ORIENTED_EDGE('',*,*,#165,.F.);
#34=ORIENTED_EDGE('',*,*,#166,.T.);
#35=ORIENTED_EDGE('',*,*,#167,.F.);
#36=ORIENTED_EDGE('',*,*,#168,.F.);
#37=ORIENTED_EDGE('',*,*,#169,.T.);
#38=ORIENTED_EDGE('',*,*,#152,.T.);
#39=ORIENTED_EDGE('',*,*,#170,.F.);
#40=ORIENTED_EDGE('',*,*,#165,.T.);
#41=ORIENTED_EDGE('',*,*,#171,.T.);
#42=ORIENTED_EDGE('',*,*,#148,.T.);
#43=ORIENTED_EDGE('',*,*,#172,.T.);
#44=ORIENTED_EDGE('',*,*,#173,.F.);
#45=ORIENTED_EDGE('',*,*,#174,.T.);
#46=ORIENTED_EDGE('',*,*,#175,.T.);
#47=ORIENTED_EDGE('',*,*,#176,.F.);
#48=ORIENTED_EDGE('',*,*,#177,.T.);
#49=ORIENTED_EDGE('',*,*,#178,.T.);
#50=ORIENTED_EDGE('',*,*,#179,.T.);
#51=ORIENTED_EDGE('',*,*,#180,.T.);
#52=ORIENTED_EDGE('',*,*,#181,.T.);
#53=ORIENTED_EDGE('',*,*,#168,.T.);
#54=ORIENTED_EDGE('',*,*,#182,.F.);
#55=ORIENTED_EDGE('',*,*,#183,.F.);
#56=ORIENTED_EDGE('',*,*,#175,.F.);
#57=ORIENTED_EDGE('',*,*,#184,.T.);
#58=ORIENTED_EDGE('',*,*,#163,.F.);
#59=ORIENTED_EDGE('',*,*,#185,.F.);
#60=ORIENTED_EDGE('',*,*,#186,.F.);
#61=ORIENTED_EDGE('',*,*,#144,.F.);
#62=ORIENTED_EDGE('',*,*,#187,.F.);
#63=ORIENTED_EDGE('',*,*,#155,.T.);
#64=ORIENTED_EDGE('',*,*,#188,.T.);
#65=ORIENTED_EDGE('',*,*,#189,.T.);
#66=ORIENTED_EDGE('',*,*,#157,.F.);
#67=ORIENTED_EDGE('',*,*,#190,.F.);
#68=ORIENTED_EDGE('',*,*,#191,.F.);
#69=ORIENTED_EDGE('',*,*,#192,.T.);
#70=ORIENTED_EDGE('',*,*,#188,.F.);
#71=ORIENTED_EDGE('',*,*,#193,.T.);
#72=ORIENTED_EDGE('',*,*,#194,.T.);
#73=ORIENTED_EDGE('',*,*,#173,.T.);
#74=ORIENTED_EDGE('',*,*,#195,.F.);
#75=ORIENTED_EDGE('',*,*,#196,.F.);
#76=ORIENTED_EDGE('',*,*,#197,.T.);
#77=ORIENTED_EDGE('',*,*,#161,.T.);
#78=ORIENTED_EDGE('',*,*,#198,.F.);
#79=ORIENTED_EDGE('',*,*,#199,.T.);
#80=ORIENTED_EDGE('',*,*,#196,.T.);
#81=ORIENTED_EDGE('',*,*,#200,.F.);
#82=ORIENTED_EDGE('',*,*,#184,.F.);
#83=ORIENTED_EDGE('',*,*,#178,.F.);
#84=ORIENTED_EDGE('',*,*,#201,.T.);
#85=ORIENTED_EDGE('',*,*,#200,.T.);
#86=ORIENTED_EDGE('',*,*,#195,.T.);
#87=ORIENTED_EDGE('',*,*,#160,.F.);
#88=ORIENTED_EDGE('',*,*,#201,.F.);
#89=ORIENTED_EDGE('',*,*,#177,.F.);
#90=ORIENTED_EDGE('',*,*,#202,.T.);
#91=ORIENTED_EDGE('',*,*,#198,.T.);
#92=ORIENTED_EDGE('',*,*,#174,.F.);
#93=ORIENTED_EDGE('',*,*,#194,.F.);
#94=ORIENTED_EDGE('',*,*,#203,.T.);
#95=ORIENTED_EDGE('',*,*,#182,.T.);
#96=ORIENTED_EDGE('',*,*,#204,.F.);
#97=ORIENTED_EDGE('',*,*,#179,.F.);
#98=ORIENTED_EDGE('',*,*,#205,.T.);
#99=ORIENTED_EDGE('',*,*,#146,.T.);
#100=ORIENTED_EDGE('',*,*,#172,.F.);
#101=ORIENTED_EDGE('',*,*,#159,.F.);
#102=ORIENTED_EDGE('',*,*,#206,.T.);
#103=ORIENTED_EDGE('',*,*,#191,.T.);
#104=ORIENTED_EDGE('',*,*,#206,.F.);
#105=ORIENTED_EDGE('',*,*,#158,.T.);
#106=ORIENTED_EDGE('',*,*,#189,.F.);
#107=ORIENTED_EDGE('',*,*,#192,.F.);
#108=ORIENTED_EDGE('',*,*,#169,.F.);
#109=ORIENTED_EDGE('',*,*,#181,.F.);
#110=ORIENTED_EDGE('',*,*,#207,.T.);
#111=ORIENTED_EDGE('',*,*,#153,.T.);
#112=ORIENTED_EDGE('',*,*,#207,.F.);
#113=ORIENTED_EDGE('',*,*,#180,.F.);
#114=ORIENTED_EDGE('',*,*,#204,.T.);
#115=ORIENTED_EDGE('',*,*,#145,.F.);
#116=ORIENTED_EDGE('',*,*,#186,.T.);
#117=ORIENTED_EDGE('',*,*,#154,.T.);
#118=ORIENTED_EDGE('',*,*,#164,.T.);
#119=ORIENTED_EDGE('',*,*,#208,.T.);
#120=ORIENTED_EDGE('',*,*,#149,.F.);
#121=ORIENTED_EDGE('',*,*,#171,.F.);
#122=ORIENTED_EDGE('',*,*,#170,.T.);
#123=ORIENTED_EDGE('',*,*,#151,.T.);
#124=ORIENTED_EDGE('',*,*,#209,.F.);
#125=ORIENTED_EDGE('',*,*,#166,.F.);
#126=ORIENTED_EDGE('',*,*,#167,.T.);
#127=ORIENTED_EDGE('',*,*,#209,.T.);
#128=ORIENTED_EDGE('',*,*,#150,.F.);
#129=ORIENTED_EDGE('',*,*,#208,.F.);
#130=ORIENTED_EDGE('',*,*,#176,.T.);
#131=ORIENTED_EDGE('',*,*,#185,.T.);
#132=ORIENTED_EDGE('',*,*,#162,.T.);
#133=ORIENTED_EDGE('',*,*,#197,.F.);
#134=ORIENTED_EDGE('',*,*,#199,.F.);
#135=ORIENTED_EDGE('',*,*,#202,.F.);
#136=ORIENTED_EDGE('',*,*,#156,.F.);
#137=ORIENTED_EDGE('',*,*,#187,.T.);
#138=ORIENTED_EDGE('',*,*,#147,.F.);
#139=ORIENTED_EDGE('',*,*,#205,.F.);
#140=ORIENTED_EDGE('',*,*,#183,.T.);
#141=ORIENTED_EDGE('',*,*,#203,.F.);
#142=ORIENTED_EDGE('',*,*,#193,.F.);
#143=ORIENTED_EDGE('',*,*,#190,.T.);
#144=EDGE_CURVE('',#210,#211,#254,.T.);
#145=EDGE_CURVE('',#211,#212,#255,.T.);
#146=EDGE_CURVE('',#213,#212,#256,.T.);
#147=EDGE_CURVE('',#213,#210,#257,.T.);
#148=EDGE_CURVE('',#214,#215,#258,.T.);
#149=EDGE_CURVE('',#214,#216,#259,.T.);
#150=EDGE_CURVE('',#216,#217,#260,.T.);
#151=EDGE_CURVE('',#218,#217,#261,.T.);
#152=EDGE_CURVE('',#219,#218,#262,.T.);
#153=EDGE_CURVE('',#220,#219,#263,.T.);
#154=EDGE_CURVE('',#221,#220,#264,.T.);
#155=EDGE_CURVE('',#222,#221,#265,.T.);
#156=EDGE_CURVE('',#222,#223,#266,.T.);
#157=EDGE_CURVE('',#223,#224,#267,.T.);
#158=EDGE_CURVE('',#225,#224,#268,.T.);
#159=EDGE_CURVE('',#225,#215,#269,.T.);
#160=EDGE_CURVE('',#226,#227,#270,.T.);
#161=EDGE_CURVE('',#228,#227,#271,.T.);
#162=EDGE_CURVE('',#229,#228,#272,.T.);
#163=EDGE_CURVE('',#229,#226,#273,.T.);
#164=EDGE_CURVE('',#230,#231,#274,.T.);
#165=EDGE_CURVE('',#232,#230,#275,.T.);
#166=EDGE_CURVE('',#232,#233,#276,.T.);
#167=EDGE_CURVE('',#231,#233,#277,.T.);
#168=EDGE_CURVE('',#234,#235,#278,.T.);
#169=EDGE_CURVE('',#234,#219,#279,.T.);
#170=EDGE_CURVE('',#232,#218,#280,.T.);
#171=EDGE_CURVE('',#230,#214,#281,.T.);
#172=EDGE_CURVE('',#215,#236,#282,.T.);
#173=EDGE_CURVE('',#237,#236,#283,.T.);
#174=EDGE_CURVE('',#237,#235,#284,.T.);
#175=EDGE_CURVE('',#238,#239,#285,.T.);
#176=EDGE_CURVE('',#240,#239,#286,.T.);
#177=EDGE_CURVE('',#240,#241,#287,.T.);
#178=EDGE_CURVE('',#241,#238,#288,.T.);
#179=EDGE_CURVE('',#242,#243,#289,.T.);
#180=EDGE_CURVE('',#243,#244,#290,.T.);
#181=EDGE_CURVE('',#244,#234,#291,.T.);
#182=EDGE_CURVE('',#245,#235,#292,.T.);
#183=EDGE_CURVE('',#242,#245,#293,.T.);
#184=EDGE_CURVE('',#238,#226,#294,.T.);
#185=EDGE_CURVE('',#239,#229,#295,.T.);
#186=EDGE_CURVE('',#211,#221,#296,.T.);
#187=EDGE_CURVE('',#222,#210,#297,.T.);
#188=EDGE_CURVE('',#246,#247,#298,.T.);
#189=EDGE_CURVE('',#247,#224,#299,.T.);
#190=EDGE_CURVE('',#246,#223,#300,.T.);
#191=EDGE_CURVE('',#248,#236,#301,.T.);
#192=EDGE_CURVE('',#248,#247,#302,.T.);
#193=EDGE_CURVE('',#246,#249,#303,.T.);
#194=EDGE_CURVE('',#249,#237,#304,.T.);
#195=EDGE_CURVE('',#250,#227,#305,.T.);
#196=EDGE_CURVE('',#251,#250,#306,.T.);
#197=EDGE_CURVE('',#251,#228,#307,.T.);
#198=EDGE_CURVE('',#252,#253,#308,.T.);
#199=EDGE_CURVE('',#252,#251,#309,.T.);
#200=EDGE_CURVE('',#253,#250,#310,.T.);
#201=EDGE_CURVE('',#241,#253,#311,.T.);
#202=EDGE_CURVE('',#240,#252,#312,.T.);
#203=EDGE_CURVE('',#249,#245,#313,.T.);
#204=EDGE_CURVE('',#243,#212,#314,.T.);
#205=EDGE_CURVE('',#242,#213,#315,.T.);
#206=EDGE_CURVE('',#225,#248,#316,.T.);
#207=EDGE_CURVE('',#244,#220,#317,.T.);
#208=EDGE_CURVE('',#231,#216,#318,.T.);
#209=EDGE_CURVE('',#233,#217,#319,.T.);
#210=VERTEX_POINT('',#642);
#211=VERTEX_POINT('',#643);
#212=VERTEX_POINT('',#645);
#213=VERTEX_POINT('',#647);
#214=VERTEX_POINT('',#651);
#215=VERTEX_POINT('',#652);
#216=VERTEX_POINT('',#654);
#217=VERTEX_POINT('',#656);
#218=VERTEX_POINT('',#658);
#219=VERTEX_POINT('',#660);
#220=VERTEX_POINT('',#662);
#221=VERTEX_POINT('',#664);
#222=VERTEX_POINT('',#666);
#223=VERTEX_POINT('',#668);
#224=VERTEX_POINT('',#670);
#225=VERTEX_POINT('',#672);
#226=VERTEX_POINT('',#676);
#227=VERTEX_POINT('',#677);
#228=VERTEX_POINT('',#679);
#229=VERTEX_POINT('',#681);
#230=VERTEX_POINT('',#684);
#231=VERTEX_POINT('',#685);
#232=VERTEX_POINT('',#687);
#233=VERTEX_POINT('',#689);
#234=VERTEX_POINT('',#693);
#235=VERTEX_POINT('',#694);
#236=VERTEX_POINT('',#699);
#237=VERTEX_POINT('',#701);
#238=VERTEX_POINT('',#705);
#239=VERTEX_POINT('',#706);
#240=VERTEX_POINT('',#708);
#241=VERTEX_POINT('',#710);
#242=VERTEX_POINT('',#714);
#243=VERTEX_POINT('',#715);
#244=VERTEX_POINT('',#717);
#245=VERTEX_POINT('',#720);
#246=VERTEX_POINT('',#730);
#247=VERTEX_POINT('',#731);
#248=VERTEX_POINT('',#736);
#249=VERTEX_POINT('',#739);
#250=VERTEX_POINT('',#743);
#251=VERTEX_POINT('',#745);
#252=VERTEX_POINT('',#749);
#253=VERTEX_POINT('',#750);
#254=LINE('',#641,#320);
#255=LINE('',#644,#321);
#256=LINE('',#646,#322);
#257=LINE('',#648,#323);
#258=LINE('',#650,#324);
#259=LINE('',#653,#325);
#260=LINE('',#655,#326);
#261=LINE('',#657,#327);
#262=LINE('',#659,#328);
#263=LINE('',#661,#329);
#264=LINE('',#663,#330);
#265=LINE('',#665,#331);
#266=LINE('',#667,#332);
#267=LINE('',#669,#333);
#268=LINE('',#671,#334);
#269=LINE('',#673,#335);
#270=LINE('',#675,#336);
#271=LINE('',#678,#337);
#272=LINE('',#680,#338);
#273=LINE('',#682,#339);
#274=LINE('',#683,#340);
#275=LINE('',#686,#341);
#276=LINE('',#688,#342);
#277=LINE('',#690,#343);
#278=LINE('',#692,#344);
#279=LINE('',#695,#345);
#280=LINE('',#696,#346);
#281=LINE('',#697,#347);
#282=LINE('',#698,#348);
#283=LINE('',#700,#349);
#284=LINE('',#702,#350);
#285=LINE('',#704,#351);
#286=LINE('',#707,#352);
#287=LINE('',#709,#353);
#288=LINE('',#711,#354);
#289=LINE('',#713,#355);
#290=LINE('',#716,#356);
#291=LINE('',#718,#357);
#292=LINE('',#719,#358);
#293=LINE('',#721,#359);
#294=LINE('',#723,#360);
#295=LINE('',#724,#361);
#296=LINE('',#726,#362);
#297=LINE('',#727,#363);
#298=LINE('',#729,#364);
#299=LINE('',#732,#365);
#300=LINE('',#733,#366);
#301=LINE('',#735,#367);
#302=LINE('',#737,#368);
#303=LINE('',#738,#369);
#304=LINE('',#740,#370);
#305=LINE('',#742,#371);
#306=LINE('',#744,#372);
#307=LINE('',#746,#373);
#308=LINE('',#748,#374);
#309=LINE('',#751,#375);
#310=LINE('',#752,#376);
#311=LINE('',#754,#377);
#312=LINE('',#756,#378);
#313=LINE('',#758,#379);
#314=LINE('',#760,#380);
#315=LINE('',#761,#381);
#316=LINE('',#763,#382);
#317=LINE('',#766,#383);
#318=LINE('',#769,#384);
#319=LINE('',#771,#385);
#320=VECTOR('',#527,1.);
#321=VECTOR('',#528,1.);
#322=VECTOR('',#529,1.);
#323=VECTOR('',#530,1.);
#324=VECTOR('',#533,1.);
#325=VECTOR('',#534,1.);
#326=VECTOR('',#535,1.);
#327=VECTOR('',#536,1.);
#328=VECTOR('',#537,1.);
#329=VECTOR('',#538,1.);
#330=VECTOR('',#539,1.);
#331=VECTOR('',#540,1.);
#332=VECTOR('',#541,1.);
#333=VECTOR('',#542,1.);
#334=VECTOR('',#543,1.);
#335=VECTOR('',#544,1.);
#336=VECTOR('',#547,1.);
#337=VECTOR('',#548,1.);
#338=VECTOR('',#549,1.);
#339=VECTOR('',#550,1.);
#340=VECTOR('',#551,1.);
#341=VECTOR('',#552,1.);
#342=VECTOR('',#553,1.);
#343=VECTOR('',#554,1.);
#344=VECTOR('',#557,1.);
#345=VECTOR('',#558,1.);
#346=VECTOR('',#559,1.);
#347=VECTOR('',#560,1.);
#348=VECTOR('',#561,1.);
#349=VECTOR('',#562,1.);
#350=VECTOR('',#563,1.);
#351=VECTOR('',#566,1.);
#352=VECTOR('',#567,1.);
#353=VECTOR('',#568,1.);
#354=VECTOR('',#569,1.);
#355=VECTOR('',#572,1.);
#356=VECTOR('',#573,1.);
#357=VECTOR('',#574,1.);
#358=VECTOR('',#575,1.);
#359=VECTOR('',#576,1.);
#360=VECTOR('',#579,1.);
#361=VECTOR('',#580,1.);
#362=VECTOR('',#583,1.);
#363=VECTOR('',#584,1.);
#364=VECTOR('',#587,1.);
#365=VECTOR('',#588,1.);
#366=VECTOR('',#589,1.);
#367=VECTOR('',#592,1.);
#368=VECTOR('',#593,1.);
#369=VECTOR('',#594,1.);
#370=VECTOR('',#595,1.);
#371=VECTOR('',#598,1.);
#372=VECTOR('',#599,1.);
#373=VECTOR('',#600,1.);
#374=VECTOR('',#603,1.);
#375=VECTOR('',#604,1.);
#376=VECTOR('',#605,1.);
#377=VECTOR('',#608,1.);
#378=VECTOR('',#611,1.);
#379=VECTOR('',#614,1.);
#380=VECTOR('',#617,1.);
#381=VECTOR('',#618,1.);
#382=VECTOR('',#621,1.);
#383=VECTOR('',#626,1.);
#384=VECTOR('',#631,1.);
#385=VECTOR('',#634,1.);
#386=EDGE_LOOP('',(#12,#13,#14,#15));
#387=EDGE_LOOP('',(#16,#17,#18,#19,#20,#21,#22,#23,#24,#25,#26,#27));
#388=EDGE_LOOP('',(#28,#29,#30,#31));
#389=EDGE_LOOP('',(#32,#33,#34,#35));
#390=EDGE_LOOP('',(#36,#37,#38,#39,#40,#41,#42,#43,#44,#45));
#391=EDGE_LOOP('',(#46,#47,#48,#49));
#392=EDGE_LOOP('',(#50,#51,#52,#53,#54,#55));
#393=EDGE_LOOP('',(#56,#57,#58,#59));
#394=EDGE_LOOP('',(#60,#61,#62,#63));
#395=EDGE_LOOP('',(#64,#65,#66,#67));
#396=EDGE_LOOP('',(#68,#69,#70,#71,#72,#73));
#397=EDGE_LOOP('',(#74,#75,#76,#77));
#398=EDGE_LOOP('',(#78,#79,#80,#81));
#399=EDGE_LOOP('',(#82,#83,#84,#85,#86,#87));
#400=EDGE_LOOP('',(#88,#89,#90,#91));
#401=EDGE_LOOP('',(#92,#93,#94,#95));
#402=EDGE_LOOP('',(#96,#97,#98,#99));
#403=EDGE_LOOP('',(#100,#101,#102,#103));
#404=EDGE_LOOP('',(#104,#105,#106,#107));
#405=EDGE_LOOP('',(#108,#109,#110,#111));
#406=EDGE_LOOP('',(#112,#113,#114,#115,#116,#117));
#407=EDGE_LOOP('',(#118,#119,#120,#121));
#408=EDGE_LOOP('',(#122,#123,#124,#125));
#409=EDGE_LOOP('',(#126,#127,#128,#129));
#410=EDGE_LOOP('',(#130,#131,#132,#133,#134,#135));
#411=EDGE_LOOP('',(#136,#137,#138,#139,#140,#141,#142,#143));
#412=FACE_BOUND('',#386,.T.);
#413=FACE_BOUND('',#387,.T.);
#414=FACE_BOUND('',#388,.T.);
#415=FACE_BOUND('',#389,.T.);
#416=FACE_BOUND('',#390,.T.);
#417=FACE_BOUND('',#391,.T.);
#418=FACE_BOUND('',#392,.T.);
#419=FACE_BOUND('',#393,.T.);
#420=FACE_BOUND('',#394,.T.);
#421=FACE_BOUND('',#395,.T.);
#422=FACE_BOUND('',#396,.T.);
#423=FACE_BOUND('',#397,.T.);
#424=FACE_BOUND('',#398,.T.);
#425=FACE_BOUND('',#399,.T.);
#426=FACE_BOUND('',#400,.T.);
#427=FACE_BOUND('',#401,.T.);
#428=FACE_BOUND('',#402,.T.);
#429=FACE_BOUND('',#403,.T.);
#430=FACE_BOUND('',#404,.T.);
#431=FACE_BOUND('',#405,.T.);
#432=FACE_BOUND('',#406,.T.);
#433=FACE_BOUND('',#407,.T.);
#434=FACE_BOUND('',#408,.T.);
#435=FACE_BOUND('',#409,.T.);
#436=FACE_BOUND('',#410,.T.);
#437=FACE_BOUND('',#411,.T.);
#438=PLANE('',#499);
#439=PLANE('',#500);
#440=PLANE('',#501);
#441=PLANE('',#502);
#442=PLANE('',#503);
#443=PLANE('',#504);
#444=PLANE('',#505);
#445=PLANE('',#506);
#446=PLANE('',#507);
#447=PLANE('',#508);
#448=PLANE('',#509);
#449=PLANE('',#510);
#450=PLANE('',#511);
#451=PLANE('',#512);
#452=PLANE('',#513);
#453=PLANE('',#514);
#454=PLANE('',#515);
#455=PLANE('',#516);
#456=PLANE('',#517);
#457=PLANE('',#518);
#458=PLANE('',#519);
#459=PLANE('',#520);
#460=PLANE('',#521);
#461=PLANE('',#522);
#462=ADVANCED_FACE('',(#412),#438,.T.);
#463=ADVANCED_FACE('',(#413),#439,.T.);
#464=ADVANCED_FACE('',(#414,#415),#440,.F.);
#465=ADVANCED_FACE('',(#416),#441,.T.);
#466=ADVANCED_FACE('',(#417),#442,.F.);
#467=ADVANCED_FACE('',(#418),#443,.T.);
#468=ADVANCED_FACE('',(#419),#444,.F.);
#469=ADVANCED_FACE('',(#420),#445,.T.);
#470=ADVANCED_FACE('',(#421),#446,.F.);
#471=ADVANCED_FACE('',(#422),#447,.T.);
#472=ADVANCED_FACE('',(#423),#448,.T.);
#473=ADVANCED_FACE('',(#424),#449,.T.);
#474=ADVANCED_FACE('',(#425),#450,.F.);
#475=ADVANCED_FACE('',(#426),#451,.T.);
#476=ADVANCED_FACE('',(#427),#452,.T.);
#477=ADVANCED_FACE('',(#428),#453,.T.);
#478=ADVANCED_FACE('',(#429),#454,.T.);
#479=ADVANCED_FACE('',(#430),#455,.T.);
#480=ADVANCED_FACE('',(#431),#456,.T.);
#481=ADVANCED_FACE('',(#432),#457,.T.);
#482=ADVANCED_FACE('',(#433),#458,.T.);
#483=ADVANCED_FACE('',(#434),#459,.F.);
#484=ADVANCED_FACE('',(#435),#460,.T.);
#485=ADVANCED_FACE('',(#436,#437),#461,.T.);
#486=CLOSED_SHELL('',(#462,#463,#464,#465,#466,#467,#468,#469,#470,#471,
#472,#473,#474,#475,#476,#477,#478,#479,#480,#481,#482,#483,#484,#485));
#487=STYLED_ITEM('',(#488),#495);
#488=PRESENTATION_STYLE_ASSIGNMENT((#489));
#489=SURFACE_STYLE_USAGE(.BOTH.,#490);
#490=SURFACE_SIDE_STYLE('',(#491));
#491=SURFACE_STYLE_FILL_AREA(#492);
#492=FILL_AREA_STYLE('',(#493));
#493=FILL_AREA_STYLE_COLOUR('',#494);
#494=COLOUR_RGB('',0.615686274509804,0.811764705882353,0.929411764705882);
#495=MANIFOLD_SOLID_BREP('Part 1',#486);
#496=SHAPE_DEFINITION_REPRESENTATION(#780,#497);
#497=SHAPE_REPRESENTATION('Part 1',(#498),#775);
#498=AXIS2_PLACEMENT_3D('',#639,#523,#524);
#499=AXIS2_PLACEMENT_3D('',#640,#525,#526);
#500=AXIS2_PLACEMENT_3D('',#649,#531,#532);
#501=AXIS2_PLACEMENT_3D('',#674,#545,#546);
#502=AXIS2_PLACEMENT_3D('',#691,#555,#556);
#503=AXIS2_PLACEMENT_3D('',#703,#564,#565);
#504=AXIS2_PLACEMENT_3D('',#712,#570,#571);
#505=AXIS2_PLACEMENT_3D('',#722,#577,#578);
#506=AXIS2_PLACEMENT_3D('',#725,#581,#582);
#507=AXIS2_PLACEMENT_3D('',#728,#585,#586);
#508=AXIS2_PLACEMENT_3D('',#734,#590,#591);
#509=AXIS2_PLACEMENT_3D('',#741,#596,#597);
#510=AXIS2_PLACEMENT_3D('',#747,#601,#602);
#511=AXIS2_PLACEMENT_3D('',#753,#606,#607);
#512=AXIS2_PLACEMENT_3D('',#755,#609,#610);
#513=AXIS2_PLACEMENT_3D('',#757,#612,#613);
#514=AXIS2_PLACEMENT_3D('',#759,#615,#616);
#515=AXIS2_PLACEMENT_3D('',#762,#619,#620);
#516=AXIS2_PLACEMENT_3D('',#764,#622,#623);
#517=AXIS2_PLACEMENT_3D('',#765,#624,#625);
#518=AXIS2_PLACEMENT_3D('',#767,#627,#628);
#519=AXIS2_PLACEMENT_3D('',#768,#629,#630);
#520=AXIS2_PLACEMENT_3D('',#770,#632,#633);
#521=AXIS2_PLACEMENT_3D('',#772,#635,#636);
#522=AXIS2_PLACEMENT_3D('',#773,#637,#638);
#523=DIRECTION('',(0.,0.,1.));
#524=DIRECTION('',(1.,0.,0.));
#525=DIRECTION('',(0.954427512753589,0.29844283020203,0.));
#526=DIRECTION('',(-0.29844283020203,0.954427512753589,0.));
#527=DIRECTION('',(0.,0.,-1.));
#528=DIRECTION('',(-0.29844283020203,0.954427512753589,0.));
#529=DIRECTION('',(0.,0.,-1.));
#530=DIRECTION('',(0.298442830202029,-0.954427512753589,0.));
#531=DIRECTION('',(0.,1.,0.));
#532=DIRECTION('',(0.,0.,1.));
#533=DIRECTION('',(1.,0.,0.));
#534=DIRECTION('',(2.47817639425258E-16,0.,1.));
#535=DIRECTION('',(-1.,0.,0.));
#536=DIRECTION('',(1.85863229568943E-16,0.,1.));
#537=DIRECTION('',(1.,0.,0.));
#538=DIRECTION('',(0.,0.,-1.));
#539=DIRECTION('',(1.,0.,0.));
#540=DIRECTION('',(0.,0.,-1.));
#541=DIRECTION('',(1.,0.,0.));
#542=DIRECTION('',(0.,0.,-1.));
#543=DIRECTION('',(1.,0.,0.));
#544=DIRECTION('',(0.,0.,-1.));
#545=DIRECTION('',(0.,1.,0.));
#546=DIRECTION('',(0.,0.,1.));
#547=DIRECTION('',(1.,0.,0.));
#548=DIRECTION('',(0.,0.,-1.));
#549=DIRECTION('',(1.,0.,0.));
#550=DIRECTION('',(0.,0.,-1.));
#551=DIRECTION('',(2.47817639425258E-16,0.,1.));
#552=DIRECTION('',(1.,0.,0.));
#553=DIRECTION('',(1.85863229568943E-16,0.,1.));
#554=DIRECTION('',(-1.,0.,0.));
#555=DIRECTION('',(0.,0.,1.));
#556=DIRECTION('',(1.,0.,0.));
#557=DIRECTION('',(-1.,0.,0.));
#558=DIRECTION('',(8.5877399800832E-17,-1.,0.));
#559=DIRECTION('',(0.,1.,0.));
#560=DIRECTION('',(0.,1.,0.));
#561=DIRECTION('',(-2.29764698804875E-16,1.,0.));
#562=DIRECTION('',(1.,0.,0.));
#563=DIRECTION('',(3.46944695195362E-16,-1.,0.));
#564=DIRECTION('',(0.954427512753589,0.298442830202029,0.));
#565=DIRECTION('',(-0.298442830202029,0.954427512753589,0.));
#566=DIRECTION('',(0.,0.,1.));
#567=DIRECTION('',(0.298442830202029,-0.954427512753589,0.));
#568=DIRECTION('',(0.,0.,-1.));
#569=DIRECTION('',(0.298442830202029,-0.954427512753589,0.));
#570=DIRECTION('',(0.,1.,0.));
#571=DIRECTION('',(0.,0.,1.));
#572=DIRECTION('',(0.,0.,-1.));
#573=DIRECTION('',(1.,0.,0.));
#574=DIRECTION('',(0.,0.,-1.));
#575=DIRECTION('',(0.,0.,-1.));
#576=DIRECTION('',(-1.,0.,0.));
#577=DIRECTION('',(1.,8.18265790555098E-17,0.));
#578=DIRECTION('',(-8.18265790555098E-17,1.,0.));
#579=DIRECTION('',(8.18265790555098E-17,-1.,0.));
#580=DIRECTION('',(8.18265790555098E-17,-1.,0.));
#581=DIRECTION('',(1.,0.,0.));
#582=DIRECTION('',(0.,0.,-1.));
#583=DIRECTION('',(1.7347234759768E-16,-1.,0.));
#584=DIRECTION('',(0.,1.,0.));
#585=DIRECTION('',(1.,5.74411747012188E-17,0.));
#586=DIRECTION('',(-5.74411747012188E-17,1.,0.));
#587=DIRECTION('',(0.,0.,-1.));
#588=DIRECTION('',(5.74411747012188E-17,-1.,0.));
#589=DIRECTION('',(5.74411747012188E-17,-1.,0.));
#590=DIRECTION('',(0.,-1.,0.));
#591=DIRECTION('',(0.,0.,-1.));
#592=DIRECTION('',(0.,0.,-1.));
#593=DIRECTION('',(1.,0.,0.));
#594=DIRECTION('',(-1.,0.,0.));
#595=DIRECTION('',(0.,0.,-1.));
#596=DIRECTION('',(1.,1.07746799750112E-16,0.));
#597=DIRECTION('',(-1.07746799750112E-16,1.,0.));
#598=DIRECTION('',(1.07746799750112E-16,-1.,0.));
#599=DIRECTION('',(0.,0.,-1.));
#600=DIRECTION('',(1.07746799750112E-16,-1.,0.));
#601=DIRECTION('',(0.,1.,0.));
#602=DIRECTION('',(0.,0.,1.));
#603=DIRECTION('',(0.,0.,-1.));
#604=DIRECTION('',(1.,0.,0.));
#605=DIRECTION('',(1.,0.,0.));
#606=DIRECTION('',(0.,0.,1.));
#607=DIRECTION('',(1.,0.,0.));
#608=DIRECTION('',(0.,1.,0.));
#609=DIRECTION('',(-1.,0.,0.));
#610=DIRECTION('',(0.,0.,1.));
#611=DIRECTION('',(0.,1.,0.));
#612=DIRECTION('',(1.,3.46944695195362E-16,0.));
#613=DIRECTION('',(-3.46944695195362E-16,1.,0.));
#614=DIRECTION('',(3.46944695195362E-16,-1.,0.));
#615=DIRECTION('',(1.,1.08487187737238E-15,0.));
#616=DIRECTION('',(-1.08487187737238E-15,1.,0.));
#617=DIRECTION('',(8.18265790555098E-17,-1.,0.));
#618=DIRECTION('',(1.08487187737238E-15,-1.,0.));
#619=DIRECTION('',(-1.,-2.29764698804875E-16,0.));
#620=DIRECTION('',(2.29764698804875E-16,-1.,0.));
#621=DIRECTION('',(-2.29764698804875E-16,1.,0.));
#622=DIRECTION('',(0.,0.,1.));
#623=DIRECTION('',(1.,0.,0.));
#624=DIRECTION('',(1.,8.5877399800832E-17,0.));
#625=DIRECTION('',(-8.5877399800832E-17,1.,0.));
#626=DIRECTION('',(8.5877399800832E-17,-1.,0.));
#627=DIRECTION('',(0.,0.,1.));
#628=DIRECTION('',(1.,0.,0.));
#629=DIRECTION('',(-1.,0.,2.47817639425258E-16));
#630=DIRECTION('',(2.47817639425258E-16,0.,1.));
#631=DIRECTION('',(0.,1.,0.));
#632=DIRECTION('',(-1.,0.,1.85863229568943E-16));
#633=DIRECTION('',(1.85863229568943E-16,0.,1.));
#634=DIRECTION('',(0.,1.,0.));
#635=DIRECTION('',(0.,0.,-1.));
#636=DIRECTION('',(-1.,0.,0.));
#637=DIRECTION('',(0.,0.,1.));
#638=DIRECTION('',(1.,0.,0.));
#639=CARTESIAN_POINT('',(0.,0.,0.));
#640=CARTESIAN_POINT('',(-0.0212,0.000605926199257379,0.015));
#641=CARTESIAN_POINT('',(-0.0202,-0.00259209840099016,0.015));
#642=CARTESIAN_POINT('',(-0.0202,-0.00259209840099016,0.018));
#643=CARTESIAN_POINT('',(-0.0202,-0.00259209840099016,0.010725));
#644=CARTESIAN_POINT('',(-0.0191391625349299,-0.00598468271114876,0.010725));
#645=CARTESIAN_POINT('',(-0.0222,0.00380395079950494,0.010725));
#646=CARTESIAN_POINT('',(-0.0222,0.00380395079950492,0.015));
#647=CARTESIAN_POINT('',(-0.0222,0.0038039507995049,0.018));
#648=CARTESIAN_POINT('',(-0.0212,0.000605926199257379,0.018));
#649=CARTESIAN_POINT('',(0.,-0.0302,0.008));
#650=CARTESIAN_POINT('',(0.,-0.0302,0.002));
#651=CARTESIAN_POINT('',(0.009415,-0.0302,0.002));
#652=CARTESIAN_POINT('',(0.0182,-0.0302,0.002));
#653=CARTESIAN_POINT('',(0.009415,-0.0302,0.0055));
#654=CARTESIAN_POINT('',(0.009415,-0.0302,0.009));
#655=CARTESIAN_POINT('',(0.003915,-0.0302,0.009));
#656=CARTESIAN_POINT('',(-0.001585,-0.0302,0.009));
#657=CARTESIAN_POINT('',(-0.001585,-0.0302,0.0055));
#658=CARTESIAN_POINT('',(-0.001585,-0.0302,0.002));
#659=CARTESIAN_POINT('',(0.,-0.0302,0.002));
#660=CARTESIAN_POINT('',(-0.0182,-0.0302,0.002));
#661=CARTESIAN_POINT('',(-0.0182,-0.0302,0.010725));
#662=CARTESIAN_POINT('',(-0.0182,-0.0302,0.010725));
#663=CARTESIAN_POINT('',(0.,-0.0302,0.010725));
#664=CARTESIAN_POINT('',(-0.0202,-0.0302,0.010725));
#665=CARTESIAN_POINT('',(-0.0202,-0.0302,0.008));
#666=CARTESIAN_POINT('',(-0.0202,-0.0302,0.018));
#667=CARTESIAN_POINT('',(0.,-0.0302,0.018));
#668=CARTESIAN_POINT('',(0.0202,-0.0302,0.018));
#669=CARTESIAN_POINT('',(0.0202,-0.0302,0.008));
#670=CARTESIAN_POINT('',(0.0202,-0.0302,0.010725));
#671=CARTESIAN_POINT('',(0.,-0.0302,0.010725));
#672=CARTESIAN_POINT('',(0.0182,-0.0302,0.010725));
#673=CARTESIAN_POINT('',(0.0182,-0.0302,0.010725));
#674=CARTESIAN_POINT('',(-1.7347234759768E-18,-0.0322,0.008));
#675=CARTESIAN_POINT('',(-1.7347234759768E-18,-0.0322,0.));
#676=CARTESIAN_POINT('',(-0.0222,-0.0322,0.));
#677=CARTESIAN_POINT('',(0.0222,-0.0322,0.));
#678=CARTESIAN_POINT('',(0.0222,-0.0322,0.008));
#679=CARTESIAN_POINT('',(0.0222,-0.0322,0.018));
#680=CARTESIAN_POINT('',(-1.7347234759768E-18,-0.0322,0.018));
#681=CARTESIAN_POINT('',(-0.0222,-0.0322,0.018));
#682=CARTESIAN_POINT('',(-0.0222,-0.0322,0.008));
#683=CARTESIAN_POINT('',(0.009415,-0.0322,0.008));
#684=CARTESIAN_POINT('',(0.009415,-0.0322,0.002));
#685=CARTESIAN_POINT('',(0.009415,-0.0322,0.009));
#686=CARTESIAN_POINT('',(-1.7347234759768E-18,-0.0322,0.002));
#687=CARTESIAN_POINT('',(-0.001585,-0.0322,0.002));
#688=CARTESIAN_POINT('',(-0.001585,-0.0322,0.008));
#689=CARTESIAN_POINT('',(-0.001585,-0.0322,0.009));
#690=CARTESIAN_POINT('',(-1.7347234759768E-18,-0.0322,0.009));
#691=CARTESIAN_POINT('',(0.,0.,0.002));
#692=CARTESIAN_POINT('',(-0.0232,0.0102,0.002));
#693=CARTESIAN_POINT('',(-0.0182,0.0102,0.002));
#694=CARTESIAN_POINT('',(-0.0242,0.0102,0.002));
#695=CARTESIAN_POINT('',(-0.0182,-0.01,0.002));
#696=CARTESIAN_POINT('',(-0.001585,-0.0552,0.002));
#697=CARTESIAN_POINT('',(0.009415,-0.0552,0.002));
#698=CARTESIAN_POINT('',(0.0182,-3.46944695195361E-18,0.002));
#699=CARTESIAN_POINT('',(0.0182,0.0302,0.002));
#700=CARTESIAN_POINT('',(-3.46944695195361E-18,0.0302,0.002));
#701=CARTESIAN_POINT('',(-0.0242,0.0302,0.002));
#702=CARTESIAN_POINT('',(-0.0242,0.0202,0.002));
#703=CARTESIAN_POINT('',(-0.0232,0.000605926199257372,0.015));
#704=CARTESIAN_POINT('',(-0.0222,-0.00259209840099014,0.008));
#705=CARTESIAN_POINT('',(-0.0222,-0.00259209840099015,0.));
#706=CARTESIAN_POINT('',(-0.0222,-0.00259209840099013,0.018));
#707=CARTESIAN_POINT('',(-0.0232,0.000605926199257372,0.018));
#708=CARTESIAN_POINT('',(-0.0262,0.0102,0.018));
#709=CARTESIAN_POINT('',(-0.0262,0.0102,0.015));
#710=CARTESIAN_POINT('',(-0.0262,0.0102,0.));
#711=CARTESIAN_POINT('',(-0.0232,0.000605926199257372,0.));
#712=CARTESIAN_POINT('',(-0.0212,0.0102,0.008));
#713=CARTESIAN_POINT('',(-0.0222,0.0102,0.015));
#714=CARTESIAN_POINT('',(-0.0222,0.0102,0.018));
#715=CARTESIAN_POINT('',(-0.0222,0.0102,0.010725));
#716=CARTESIAN_POINT('',(-0.0192,0.0102,0.010725));
#717=CARTESIAN_POINT('',(-0.0182,0.0102,0.010725));
#718=CARTESIAN_POINT('',(-0.0182,0.0102,0.010725));
#719=CARTESIAN_POINT('',(-0.0242,0.0102,0.015));
#720=CARTESIAN_POINT('',(-0.0242,0.0102,0.018));
#721=CARTESIAN_POINT('',(-0.0232,0.0102,0.018));
#722=CARTESIAN_POINT('',(-0.0222,-0.011,0.008));
#723=CARTESIAN_POINT('',(-0.0222,-0.011,0.));
#724=CARTESIAN_POINT('',(-0.0222,-0.011,0.018));
#725=CARTESIAN_POINT('',(-0.0202,-0.01,0.008));
#726=CARTESIAN_POINT('',(-0.0202,0.0202,0.010725));
#727=CARTESIAN_POINT('',(-0.0202,-0.00579012300123771,0.018));
#728=CARTESIAN_POINT('',(0.0202,0.,0.008));
#729=CARTESIAN_POINT('',(0.0202,0.0302,0.008));
#730=CARTESIAN_POINT('',(0.0202,0.0302,0.018));
#731=CARTESIAN_POINT('',(0.0202,0.0302,0.010725));
#732=CARTESIAN_POINT('',(0.0202,0.,0.010725));
#733=CARTESIAN_POINT('',(0.0202,0.,0.018));
#734=CARTESIAN_POINT('',(-0.0212,0.0302,0.008));
#735=CARTESIAN_POINT('',(0.0182,0.0302,0.010725));
#736=CARTESIAN_POINT('',(0.0182,0.0302,0.010725));
#737=CARTESIAN_POINT('',(-3.46944695195361E-18,0.0302,0.010725));
#738=CARTESIAN_POINT('',(-0.0222,0.0302,0.018));
#739=CARTESIAN_POINT('',(-0.0242,0.0302,0.018));
#740=CARTESIAN_POINT('',(-0.0242,0.0302,0.015));
#741=CARTESIAN_POINT('',(0.0222,0.,0.008));
#742=CARTESIAN_POINT('',(0.0222,0.,0.));
#743=CARTESIAN_POINT('',(0.0222,0.0322,0.));
#744=CARTESIAN_POINT('',(0.0222,0.0322,0.008));
#745=CARTESIAN_POINT('',(0.0222,0.0322,0.018));
#746=CARTESIAN_POINT('',(0.0222,0.,0.018));
#747=CARTESIAN_POINT('',(0.,0.0322,0.008));
#748=CARTESIAN_POINT('',(-0.0262,0.0322,0.015));
#749=CARTESIAN_POINT('',(-0.0262,0.0322,0.018));
#750=CARTESIAN_POINT('',(-0.0262,0.0322,0.));
#751=CARTESIAN_POINT('',(-0.0232,0.0322,0.018));
#752=CARTESIAN_POINT('',(0.,0.0322,0.));
#753=CARTESIAN_POINT('',(0.,0.,0.));
#754=CARTESIAN_POINT('',(-0.0262,0.0312,0.));
#755=CARTESIAN_POINT('',(-0.0262,0.0312,0.015));
#756=CARTESIAN_POINT('',(-0.0262,0.0312,0.018));
#757=CARTESIAN_POINT('',(-0.0242,0.0202,0.015));
#758=CARTESIAN_POINT('',(-0.0242,0.0202,0.018));
#759=CARTESIAN_POINT('',(-0.0222,0.00700197539975246,0.015));
#760=CARTESIAN_POINT('',(-0.0222,-0.011,0.010725));
#761=CARTESIAN_POINT('',(-0.0222,0.00700197539975246,0.018));
#762=CARTESIAN_POINT('',(0.0182,-3.46944695195361E-18,0.010725));
#763=CARTESIAN_POINT('',(0.0182,-3.46944695195361E-18,0.010725));
#764=CARTESIAN_POINT('',(-0.002,0.,0.010725));
#765=CARTESIAN_POINT('',(-0.0182,-0.01,0.010725));
#766=CARTESIAN_POINT('',(-0.0182,-0.01,0.010725));
#767=CARTESIAN_POINT('',(-0.002,0.,0.010725));
#768=CARTESIAN_POINT('',(0.009415,-0.0552,0.0055));
#769=CARTESIAN_POINT('',(0.009415,-0.0552,0.009));
#770=CARTESIAN_POINT('',(-0.001585,-0.0552,0.0055));
#771=CARTESIAN_POINT('',(-0.001585,-0.0552,0.009));
#772=CARTESIAN_POINT('',(0.003915,-0.0552,0.009));
#773=CARTESIAN_POINT('',(-0.0232,0.0116059261992574,0.018));
#774=MECHANICAL_DESIGN_GEOMETRIC_PRESENTATION_REPRESENTATION('',(#487),
#775);
#775=(
GEOMETRIC_REPRESENTATION_CONTEXT(3)
GLOBAL_UNCERTAINTY_ASSIGNED_CONTEXT((#776))
GLOBAL_UNIT_ASSIGNED_CONTEXT((#779,#778,#777))
REPRESENTATION_CONTEXT('Part 1','TOP_LEVEL_ASSEMBLY_PART')
);
#776=UNCERTAINTY_MEASURE_WITH_UNIT(LENGTH_MEASURE(1.E-8),#779,
'DISTANCE_ACCURACY_VALUE','Maximum Tolerance applied to model');
#777=(
NAMED_UNIT(*)
SI_UNIT($,.STERADIAN.)
SOLID_ANGLE_UNIT()
);
#778=(
NAMED_UNIT(*)
PLANE_ANGLE_UNIT()
SI_UNIT($,.RADIAN.)
);
#779=(
LENGTH_UNIT()
NAMED_UNIT(*)
SI_UNIT($,.METRE.)
);
#780=PRODUCT_DEFINITION_SHAPE('','',#781);
#781=PRODUCT_DEFINITION('','',#783,#782);
#782=PRODUCT_DEFINITION_CONTEXT('',#789,'design');
#783=PRODUCT_DEFINITION_FORMATION_WITH_SPECIFIED_SOURCE('','',#785,
 .NOT_KNOWN.);
#784=PRODUCT_RELATED_PRODUCT_CATEGORY('','',(#785));
#785=PRODUCT('Part 1','Part 1','Part 1',(#787));
#786=PRODUCT_CATEGORY('','');
#787=PRODUCT_CONTEXT('',#789,'mechanical');
#788=APPLICATION_PROTOCOL_DEFINITION('international standard',
'ap242_managed_model_based_3d_engineering',2020,#789);
#789=APPLICATION_CONTEXT('managed model based 3d engineering');
ENDSEC;
END-ISO-10303-21;
