ISO-10303-21;
HEADER;
/* Generated by software containing ST-Developer
 * from STEP Tools, Inc. (www.steptools.com) 
 */
/* OPTION: using custom renumber hook */

FILE_DESCRIPTION(
/* description */ ('STEP AP242 Edition 2',
'CAx-IF Rec.Pracs.---Representation and Presentation of Product Manufa
cturing Information (PMI)---4.0---2014-10-13',
'CAx-IF Rec.Pracs.---3D Tessellated Geometry---0.4---2014-09-14','2;1',
'CAx-IF Rec.Pracs.---User Defined Attributes---1.5---2016-08-15'),
/* implementation_level */ '2;1');

FILE_NAME(
/* name */ 'Power Module',
/* time_stamp */ '2026-08-12T02:01:42Z',
/* author */ (''),
/* organization */ (''),
/* preprocessor_version */ 'ST-DEVELOPER v20',
/* originating_system */ 'ONSHAPE BY PTC INC, 1.219',
/* authorisation */ '  ');

FILE_SCHEMA (('AP242_MANAGED_MODEL_BASED_3D_ENGINEERING_MIM_LF { 1 0 10303 442 3 1 4 }'));
ENDSEC;

DATA;
#10=SHAPE_REPRESENTATION_RELATIONSHIP('','',#424,#11);
#11=ADVANCED_BREP_SHAPE_REPRESENTATION('',(#422),#663);
#12=ORIENTED_EDGE('',*,*,#124,.F.);
#13=ORIENTED_EDGE('',*,*,#125,.F.);
#14=ORIENTED_EDGE('',*,*,#126,.F.);
#15=ORIENTED_EDGE('',*,*,#127,.T.);
#16=ORIENTED_EDGE('',*,*,#128,.F.);
#17=ORIENTED_EDGE('',*,*,#129,.F.);
#18=ORIENTED_EDGE('',*,*,#130,.T.);
#19=ORIENTED_EDGE('',*,*,#125,.T.);
#20=ORIENTED_EDGE('',*,*,#131,.T.);
#21=ORIENTED_EDGE('',*,*,#132,.T.);
#22=ORIENTED_EDGE('',*,*,#133,.T.);
#23=ORIENTED_EDGE('',*,*,#134,.F.);
#24=ORIENTED_EDGE('',*,*,#135,.T.);
#25=ORIENTED_EDGE('',*,*,#136,.T.);
#26=ORIENTED_EDGE('',*,*,#137,.T.);
#27=ORIENTED_EDGE('',*,*,#138,.F.);
#28=ORIENTED_EDGE('',*,*,#139,.F.);
#29=ORIENTED_EDGE('',*,*,#129,.T.);
#30=ORIENTED_EDGE('',*,*,#140,.T.);
#31=ORIENTED_EDGE('',*,*,#141,.F.);
#32=ORIENTED_EDGE('',*,*,#142,.F.);
#33=ORIENTED_EDGE('',*,*,#143,.T.);
#34=ORIENTED_EDGE('',*,*,#144,.T.);
#35=ORIENTED_EDGE('',*,*,#145,.T.);
#36=ORIENTED_EDGE('',*,*,#146,.T.);
#37=ORIENTED_EDGE('',*,*,#147,.F.);
#38=ORIENTED_EDGE('',*,*,#148,.F.);
#39=ORIENTED_EDGE('',*,*,#138,.T.);
#40=ORIENTED_EDGE('',*,*,#147,.T.);
#41=ORIENTED_EDGE('',*,*,#149,.T.);
#42=ORIENTED_EDGE('',*,*,#150,.F.);
#43=ORIENTED_EDGE('',*,*,#151,.F.);
#44=ORIENTED_EDGE('',*,*,#150,.T.);
#45=ORIENTED_EDGE('',*,*,#152,.T.);
#46=ORIENTED_EDGE('',*,*,#153,.F.);
#47=ORIENTED_EDGE('',*,*,#154,.F.);
#48=ORIENTED_EDGE('',*,*,#153,.T.);
#49=ORIENTED_EDGE('',*,*,#155,.T.);
#50=ORIENTED_EDGE('',*,*,#156,.F.);
#51=ORIENTED_EDGE('',*,*,#157,.F.);
#52=ORIENTED_EDGE('',*,*,#158,.F.);
#53=ORIENTED_EDGE('',*,*,#159,.F.);
#54=ORIENTED_EDGE('',*,*,#160,.T.);
#55=ORIENTED_EDGE('',*,*,#156,.T.);
#56=ORIENTED_EDGE('',*,*,#161,.F.);
#57=ORIENTED_EDGE('',*,*,#162,.F.);
#58=ORIENTED_EDGE('',*,*,#163,.T.);
#59=ORIENTED_EDGE('',*,*,#159,.T.);
#60=ORIENTED_EDGE('',*,*,#162,.T.);
#61=ORIENTED_EDGE('',*,*,#164,.T.);
#62=ORIENTED_EDGE('',*,*,#165,.F.);
#63=ORIENTED_EDGE('',*,*,#166,.F.);
#64=ORIENTED_EDGE('',*,*,#167,.F.);
#65=ORIENTED_EDGE('',*,*,#145,.F.);
#66=ORIENTED_EDGE('',*,*,#168,.T.);
#67=ORIENTED_EDGE('',*,*,#165,.T.);
#68=ORIENTED_EDGE('',*,*,#144,.F.);
#69=ORIENTED_EDGE('',*,*,#169,.T.);
#70=ORIENTED_EDGE('',*,*,#126,.T.);
#71=ORIENTED_EDGE('',*,*,#130,.F.);
#72=ORIENTED_EDGE('',*,*,#139,.T.);
#73=ORIENTED_EDGE('',*,*,#148,.T.);
#74=ORIENTED_EDGE('',*,*,#151,.T.);
#75=ORIENTED_EDGE('',*,*,#154,.T.);
#76=ORIENTED_EDGE('',*,*,#157,.T.);
#77=ORIENTED_EDGE('',*,*,#160,.F.);
#78=ORIENTED_EDGE('',*,*,#163,.F.);
#79=ORIENTED_EDGE('',*,*,#166,.T.);
#80=ORIENTED_EDGE('',*,*,#168,.F.);
#81=ORIENTED_EDGE('',*,*,#128,.T.);
#82=ORIENTED_EDGE('',*,*,#170,.F.);
#83=ORIENTED_EDGE('',*,*,#140,.F.);
#84=ORIENTED_EDGE('',*,*,#137,.F.);
#85=ORIENTED_EDGE('',*,*,#164,.F.);
#86=ORIENTED_EDGE('',*,*,#161,.T.);
#87=ORIENTED_EDGE('',*,*,#158,.T.);
#88=ORIENTED_EDGE('',*,*,#155,.F.);
#89=ORIENTED_EDGE('',*,*,#152,.F.);
#90=ORIENTED_EDGE('',*,*,#149,.F.);
#91=ORIENTED_EDGE('',*,*,#146,.F.);
#92=ORIENTED_EDGE('',*,*,#167,.T.);
#93=ORIENTED_EDGE('',*,*,#169,.F.);
#94=ORIENTED_EDGE('',*,*,#143,.F.);
#95=ORIENTED_EDGE('',*,*,#171,.T.);
#96=ORIENTED_EDGE('',*,*,#134,.T.);
#97=ORIENTED_EDGE('',*,*,#172,.T.);
#98=ORIENTED_EDGE('',*,*,#173,.T.);
#99=ORIENTED_EDGE('',*,*,#170,.T.);
#100=ORIENTED_EDGE('',*,*,#136,.F.);
#101=ORIENTED_EDGE('',*,*,#174,.F.);
#102=ORIENTED_EDGE('',*,*,#141,.T.);
#103=ORIENTED_EDGE('',*,*,#175,.F.);
#104=ORIENTED_EDGE('',*,*,#127,.F.);
#105=ORIENTED_EDGE('',*,*,#173,.F.);
#106=ORIENTED_EDGE('',*,*,#176,.F.);
#107=ORIENTED_EDGE('',*,*,#177,.F.);
#108=ORIENTED_EDGE('',*,*,#171,.F.);
#109=ORIENTED_EDGE('',*,*,#142,.T.);
#110=ORIENTED_EDGE('',*,*,#174,.T.);
#111=ORIENTED_EDGE('',*,*,#135,.F.);
#112=ORIENTED_EDGE('',*,*,#175,.T.);
#113=ORIENTED_EDGE('',*,*,#178,.F.);
#114=ORIENTED_EDGE('',*,*,#131,.F.);
#115=ORIENTED_EDGE('',*,*,#124,.T.);
#116=ORIENTED_EDGE('',*,*,#177,.T.);
#117=ORIENTED_EDGE('',*,*,#179,.F.);
#118=ORIENTED_EDGE('',*,*,#132,.F.);
#119=ORIENTED_EDGE('',*,*,#178,.T.);
#120=ORIENTED_EDGE('',*,*,#176,.T.);
#121=ORIENTED_EDGE('',*,*,#172,.F.);
#122=ORIENTED_EDGE('',*,*,#133,.F.);
#123=ORIENTED_EDGE('',*,*,#179,.T.);
#124=EDGE_CURVE('',#180,#181,#217,.T.);
#125=EDGE_CURVE('',#182,#180,#218,.T.);
#126=EDGE_CURVE('',#183,#182,#219,.T.);
#127=EDGE_CURVE('',#183,#181,#220,.T.);
#128=EDGE_CURVE('',#184,#185,#221,.T.);
#129=EDGE_CURVE('',#186,#184,#222,.T.);
#130=EDGE_CURVE('',#186,#182,#223,.T.);
#131=EDGE_CURVE('',#180,#187,#224,.T.);
#132=EDGE_CURVE('',#187,#188,#225,.T.);
#133=EDGE_CURVE('',#188,#189,#226,.T.);
#134=EDGE_CURVE('',#190,#189,#227,.T.);
#135=EDGE_CURVE('',#190,#191,#228,.T.);
#136=EDGE_CURVE('',#191,#185,#229,.T.);
#137=EDGE_CURVE('',#184,#192,#230,.T.);
#138=EDGE_CURVE('',#193,#192,#231,.T.);
#139=EDGE_CURVE('',#186,#193,#232,.T.);
#140=EDGE_CURVE('',#192,#194,#233,.T.);
#141=EDGE_CURVE('',#195,#194,#234,.T.);
#142=EDGE_CURVE('',#196,#195,#235,.T.);
#143=EDGE_CURVE('',#196,#197,#236,.T.);
#144=EDGE_CURVE('',#197,#198,#237,.T.);
#145=EDGE_CURVE('',#198,#199,#238,.T.);
#146=EDGE_CURVE('',#199,#200,#239,.T.);
#147=EDGE_CURVE('',#201,#200,#240,.T.);
#148=EDGE_CURVE('',#193,#201,#241,.T.);
#149=EDGE_CURVE('',#200,#202,#242,.T.);
#150=EDGE_CURVE('',#203,#202,#243,.T.);
#151=EDGE_CURVE('',#201,#203,#244,.T.);
#152=EDGE_CURVE('',#202,#204,#245,.T.);
#153=EDGE_CURVE('',#205,#204,#246,.T.);
#154=EDGE_CURVE('',#203,#205,#247,.T.);
#155=EDGE_CURVE('',#204,#206,#248,.T.);
#156=EDGE_CURVE('',#207,#206,#249,.T.);
#157=EDGE_CURVE('',#205,#207,#250,.T.);
#158=EDGE_CURVE('',#208,#206,#251,.T.);
#159=EDGE_CURVE('',#209,#208,#252,.T.);
#160=EDGE_CURVE('',#209,#207,#253,.T.);
#161=EDGE_CURVE('',#210,#208,#254,.T.);
#162=EDGE_CURVE('',#211,#210,#255,.T.);
#163=EDGE_CURVE('',#211,#209,#256,.T.);
#164=EDGE_CURVE('',#210,#212,#257,.T.);
#165=EDGE_CURVE('',#213,#212,#258,.T.);
#166=EDGE_CURVE('',#211,#213,#259,.T.);
#167=EDGE_CURVE('',#199,#212,#260,.T.);
#168=EDGE_CURVE('',#198,#213,#261,.T.);
#169=EDGE_CURVE('',#197,#183,#262,.T.);
#170=EDGE_CURVE('',#194,#185,#263,.T.);
#171=EDGE_CURVE('',#196,#190,#264,.T.);
#172=EDGE_CURVE('',#189,#214,#265,.T.);
#173=EDGE_CURVE('',#214,#183,#266,.T.);
#174=EDGE_CURVE('',#195,#191,#267,.T.);
#175=EDGE_CURVE('',#181,#215,#268,.T.);
#176=EDGE_CURVE('',#216,#214,#269,.T.);
#177=EDGE_CURVE('',#215,#216,#270,.T.);
#178=EDGE_CURVE('',#187,#215,#271,.T.);
#179=EDGE_CURVE('',#188,#216,#272,.T.);
#180=VERTEX_POINT('',#550);
#181=VERTEX_POINT('',#551);
#182=VERTEX_POINT('',#553);
#183=VERTEX_POINT('',#555);
#184=VERTEX_POINT('',#559);
#185=VERTEX_POINT('',#560);
#186=VERTEX_POINT('',#562);
#187=VERTEX_POINT('',#565);
#188=VERTEX_POINT('',#567);
#189=VERTEX_POINT('',#569);
#190=VERTEX_POINT('',#571);
#191=VERTEX_POINT('',#573);
#192=VERTEX_POINT('',#577);
#193=VERTEX_POINT('',#579);
#194=VERTEX_POINT('',#583);
#195=VERTEX_POINT('',#585);
#196=VERTEX_POINT('',#587);
#197=VERTEX_POINT('',#589);
#198=VERTEX_POINT('',#591);
#199=VERTEX_POINT('',#593);
#200=VERTEX_POINT('',#595);
#201=VERTEX_POINT('',#597);
#202=VERTEX_POINT('',#601);
#203=VERTEX_POINT('',#603);
#204=VERTEX_POINT('',#607);
#205=VERTEX_POINT('',#609);
#206=VERTEX_POINT('',#613);
#207=VERTEX_POINT('',#615);
#208=VERTEX_POINT('',#619);
#209=VERTEX_POINT('',#621);
#210=VERTEX_POINT('',#625);
#211=VERTEX_POINT('',#627);
#212=VERTEX_POINT('',#631);
#213=VERTEX_POINT('',#633);
#214=VERTEX_POINT('',#646);
#215=VERTEX_POINT('',#652);
#216=VERTEX_POINT('',#654);
#217=LINE('',#549,#273);
#218=LINE('',#552,#274);
#219=LINE('',#554,#275);
#220=LINE('',#556,#276);
#221=LINE('',#558,#277);
#222=LINE('',#561,#278);
#223=LINE('',#563,#279);
#224=LINE('',#564,#280);
#225=LINE('',#566,#281);
#226=LINE('',#568,#282);
#227=LINE('',#570,#283);
#228=LINE('',#572,#284);
#229=LINE('',#574,#285);
#230=LINE('',#576,#286);
#231=LINE('',#578,#287);
#232=LINE('',#580,#288);
#233=LINE('',#582,#289);
#234=LINE('',#584,#290);
#235=LINE('',#586,#291);
#236=LINE('',#588,#292);
#237=LINE('',#590,#293);
#238=LINE('',#592,#294);
#239=LINE('',#594,#295);
#240=LINE('',#596,#296);
#241=LINE('',#598,#297);
#242=LINE('',#600,#298);
#243=LINE('',#602,#299);
#244=LINE('',#604,#300);
#245=LINE('',#606,#301);
#246=LINE('',#608,#302);
#247=LINE('',#610,#303);
#248=LINE('',#612,#304);
#249=LINE('',#614,#305);
#250=LINE('',#616,#306);
#251=LINE('',#618,#307);
#252=LINE('',#620,#308);
#253=LINE('',#622,#309);
#254=LINE('',#624,#310);
#255=LINE('',#626,#311);
#256=LINE('',#628,#312);
#257=LINE('',#630,#313);
#258=LINE('',#632,#314);
#259=LINE('',#634,#315);
#260=LINE('',#636,#316);
#261=LINE('',#637,#317);
#262=LINE('',#639,#318);
#263=LINE('',#641,#319);
#264=LINE('',#644,#320);
#265=LINE('',#645,#321);
#266=LINE('',#647,#322);
#267=LINE('',#649,#323);
#268=LINE('',#651,#324);
#269=LINE('',#653,#325);
#270=LINE('',#655,#326);
#271=LINE('',#658,#327);
#272=LINE('',#660,#328);
#273=VECTOR('',#451,1.);
#274=VECTOR('',#452,1.);
#275=VECTOR('',#453,1.);
#276=VECTOR('',#454,1.);
#277=VECTOR('',#457,1.);
#278=VECTOR('',#458,1.);
#279=VECTOR('',#459,1.);
#280=VECTOR('',#460,1.);
#281=VECTOR('',#461,1.);
#282=VECTOR('',#462,1.);
#283=VECTOR('',#463,1.);
#284=VECTOR('',#464,1.);
#285=VECTOR('',#465,1.);
#286=VECTOR('',#468,1.);
#287=VECTOR('',#469,1.);
#288=VECTOR('',#470,1.);
#289=VECTOR('',#473,1.);
#290=VECTOR('',#474,1.);
#291=VECTOR('',#475,1.);
#292=VECTOR('',#476,1.);
#293=VECTOR('',#477,1.);
#294=VECTOR('',#478,1.);
#295=VECTOR('',#479,1.);
#296=VECTOR('',#480,1.);
#297=VECTOR('',#481,1.);
#298=VECTOR('',#484,1.);
#299=VECTOR('',#485,1.);
#300=VECTOR('',#486,1.);
#301=VECTOR('',#489,1.);
#302=VECTOR('',#490,1.);
#303=VECTOR('',#491,1.);
#304=VECTOR('',#494,1.);
#305=VECTOR('',#495,1.);
#306=VECTOR('',#496,1.);
#307=VECTOR('',#499,1.);
#308=VECTOR('',#500,1.);
#309=VECTOR('',#501,1.);
#310=VECTOR('',#504,1.);
#311=VECTOR('',#505,1.);
#312=VECTOR('',#506,1.);
#313=VECTOR('',#509,1.);
#314=VECTOR('',#510,1.);
#315=VECTOR('',#511,1.);
#316=VECTOR('',#514,1.);
#317=VECTOR('',#515,1.);
#318=VECTOR('',#518,1.);
#319=VECTOR('',#521,1.);
#320=VECTOR('',#526,1.);
#321=VECTOR('',#527,1.);
#322=VECTOR('',#528,1.);
#323=VECTOR('',#531,1.);
#324=VECTOR('',#534,1.);
#325=VECTOR('',#535,1.);
#326=VECTOR('',#536,1.);
#327=VECTOR('',#541,1.);
#328=VECTOR('',#544,1.);
#329=EDGE_LOOP('',(#12,#13,#14,#15));
#330=EDGE_LOOP('',(#16,#17,#18,#19,#20,#21,#22,#23,#24,#25));
#331=EDGE_LOOP('',(#26,#27,#28,#29));
#332=EDGE_LOOP('',(#30,#31,#32,#33,#34,#35,#36,#37,#38,#39));
#333=EDGE_LOOP('',(#40,#41,#42,#43));
#334=EDGE_LOOP('',(#44,#45,#46,#47));
#335=EDGE_LOOP('',(#48,#49,#50,#51));
#336=EDGE_LOOP('',(#52,#53,#54,#55));
#337=EDGE_LOOP('',(#56,#57,#58,#59));
#338=EDGE_LOOP('',(#60,#61,#62,#63));
#339=EDGE_LOOP('',(#64,#65,#66,#67));
#340=EDGE_LOOP('',(#68,#69,#70,#71,#72,#73,#74,#75,#76,#77,#78,#79,#80));
#341=EDGE_LOOP('',(#81,#82,#83,#84));
#342=EDGE_LOOP('',(#85,#86,#87,#88,#89,#90,#91,#92));
#343=EDGE_LOOP('',(#93,#94,#95,#96,#97,#98));
#344=EDGE_LOOP('',(#99,#100,#101,#102));
#345=EDGE_LOOP('',(#103,#104,#105,#106,#107));
#346=EDGE_LOOP('',(#108,#109,#110,#111));
#347=EDGE_LOOP('',(#112,#113,#114,#115));
#348=EDGE_LOOP('',(#116,#117,#118,#119));
#349=EDGE_LOOP('',(#120,#121,#122,#123));
#350=FACE_BOUND('',#329,.T.);
#351=FACE_BOUND('',#330,.T.);
#352=FACE_BOUND('',#331,.T.);
#353=FACE_BOUND('',#332,.T.);
#354=FACE_BOUND('',#333,.T.);
#355=FACE_BOUND('',#334,.T.);
#356=FACE_BOUND('',#335,.T.);
#357=FACE_BOUND('',#336,.T.);
#358=FACE_BOUND('',#337,.T.);
#359=FACE_BOUND('',#338,.T.);
#360=FACE_BOUND('',#339,.T.);
#361=FACE_BOUND('',#340,.T.);
#362=FACE_BOUND('',#341,.T.);
#363=FACE_BOUND('',#342,.T.);
#364=FACE_BOUND('',#343,.T.);
#365=FACE_BOUND('',#344,.T.);
#366=FACE_BOUND('',#345,.T.);
#367=FACE_BOUND('',#346,.T.);
#368=FACE_BOUND('',#347,.T.);
#369=FACE_BOUND('',#348,.T.);
#370=FACE_BOUND('',#349,.T.);
#371=PLANE('',#426);
#372=PLANE('',#427);
#373=PLANE('',#428);
#374=PLANE('',#429);
#375=PLANE('',#430);
#376=PLANE('',#431);
#377=PLANE('',#432);
#378=PLANE('',#433);
#379=PLANE('',#434);
#380=PLANE('',#435);
#381=PLANE('',#436);
#382=PLANE('',#437);
#383=PLANE('',#438);
#384=PLANE('',#439);
#385=PLANE('',#440);
#386=PLANE('',#441);
#387=PLANE('',#442);
#388=PLANE('',#443);
#389=PLANE('',#444);
#390=PLANE('',#445);
#391=PLANE('',#446);
#392=ADVANCED_FACE('',(#350),#371,.F.);
#393=ADVANCED_FACE('',(#351),#372,.T.);
#394=ADVANCED_FACE('',(#352),#373,.F.);
#395=ADVANCED_FACE('',(#353),#374,.F.);
#396=ADVANCED_FACE('',(#354),#375,.F.);
#397=ADVANCED_FACE('',(#355),#376,.F.);
#398=ADVANCED_FACE('',(#356),#377,.F.);
#399=ADVANCED_FACE('',(#357),#378,.T.);
#400=ADVANCED_FACE('',(#358),#379,.T.);
#401=ADVANCED_FACE('',(#359),#380,.F.);
#402=ADVANCED_FACE('',(#360),#381,.T.);
#403=ADVANCED_FACE('',(#361),#382,.T.);
#404=ADVANCED_FACE('',(#362),#383,.F.);
#405=ADVANCED_FACE('',(#363),#384,.T.);
#406=ADVANCED_FACE('',(#364),#385,.T.);
#407=ADVANCED_FACE('',(#365),#386,.F.);
#408=ADVANCED_FACE('',(#366),#387,.T.);
#409=ADVANCED_FACE('',(#367),#388,.T.);
#410=ADVANCED_FACE('',(#368),#389,.F.);
#411=ADVANCED_FACE('',(#369),#390,.F.);
#412=ADVANCED_FACE('',(#370),#391,.F.);
#413=CLOSED_SHELL('',(#392,#393,#394,#395,#396,#397,#398,#399,#400,#401,
#402,#403,#404,#405,#406,#407,#408,#409,#410,#411,#412));
#414=STYLED_ITEM('',(#415),#422);
#415=PRESENTATION_STYLE_ASSIGNMENT((#416));
#416=SURFACE_STYLE_USAGE(.BOTH.,#417);
#417=SURFACE_SIDE_STYLE('',(#418));
#418=SURFACE_STYLE_FILL_AREA(#419);
#419=FILL_AREA_STYLE('',(#420));
#420=FILL_AREA_STYLE_COLOUR('',#421);
#421=COLOUR_RGB('',0.615686274509804,0.811764705882353,0.929411764705882);
#422=MANIFOLD_SOLID_BREP('Part 1',#413);
#423=SHAPE_DEFINITION_REPRESENTATION(#668,#424);
#424=SHAPE_REPRESENTATION('Part 1',(#425),#663);
#425=AXIS2_PLACEMENT_3D('',#547,#447,#448);
#426=AXIS2_PLACEMENT_3D('',#548,#449,#450);
#427=AXIS2_PLACEMENT_3D('',#557,#455,#456);
#428=AXIS2_PLACEMENT_3D('',#575,#466,#467);
#429=AXIS2_PLACEMENT_3D('',#581,#471,#472);
#430=AXIS2_PLACEMENT_3D('',#599,#482,#483);
#431=AXIS2_PLACEMENT_3D('',#605,#487,#488);
#432=AXIS2_PLACEMENT_3D('',#611,#492,#493);
#433=AXIS2_PLACEMENT_3D('',#617,#497,#498);
#434=AXIS2_PLACEMENT_3D('',#623,#502,#503);
#435=AXIS2_PLACEMENT_3D('',#629,#507,#508);
#436=AXIS2_PLACEMENT_3D('',#635,#512,#513);
#437=AXIS2_PLACEMENT_3D('',#638,#516,#517);
#438=AXIS2_PLACEMENT_3D('',#640,#519,#520);
#439=AXIS2_PLACEMENT_3D('',#642,#522,#523);
#440=AXIS2_PLACEMENT_3D('',#643,#524,#525);
#441=AXIS2_PLACEMENT_3D('',#648,#529,#530);
#442=AXIS2_PLACEMENT_3D('',#650,#532,#533);
#443=AXIS2_PLACEMENT_3D('',#656,#537,#538);
#444=AXIS2_PLACEMENT_3D('',#657,#539,#540);
#445=AXIS2_PLACEMENT_3D('',#659,#542,#543);
#446=AXIS2_PLACEMENT_3D('',#661,#545,#546);
#447=DIRECTION('',(0.,0.,1.));
#448=DIRECTION('',(1.,0.,0.));
#449=DIRECTION('',(1.,3.86567905510152E-16,0.));
#450=DIRECTION('',(-3.86567905510152E-16,1.,0.));
#451=DIRECTION('',(-2.40100135083295E-16,1.,0.));
#452=DIRECTION('',(0.,0.,-1.));
#453=DIRECTION('',(3.86567905510152E-16,-1.,0.));
#454=DIRECTION('',(0.,0.,-1.));
#455=DIRECTION('',(0.,-1.,0.));
#456=DIRECTION('',(0.,0.,-1.));
#457=DIRECTION('',(-1.,0.,0.));
#458=DIRECTION('',(0.,0.,-1.));
#459=DIRECTION('',(-1.,0.,0.));
#460=DIRECTION('',(-1.,-2.40100135083295E-16,-1.28975723120952E-16));
#461=DIRECTION('',(0.,0.,1.));
#462=DIRECTION('',(1.,2.40100135083295E-16,0.));
#463=DIRECTION('',(0.,0.,-1.));
#464=DIRECTION('',(-1.,-2.40100135083295E-16,0.));
#465=DIRECTION('',(0.,0.,-1.));
#466=DIRECTION('',(-1.,-2.04687135808473E-16,0.));
#467=DIRECTION('',(2.04687135808473E-16,-1.,0.));
#468=DIRECTION('',(-2.04687135808473E-16,1.,0.));
#469=DIRECTION('',(0.,0.,-1.));
#470=DIRECTION('',(-2.04687135808473E-16,1.,0.));
#471=DIRECTION('',(0.,-1.,0.));
#472=DIRECTION('',(0.,0.,-1.));
#473=DIRECTION('',(-1.,0.,0.));
#474=DIRECTION('',(0.,0.,-1.));
#475=DIRECTION('',(-1.,0.,0.));
#476=DIRECTION('',(0.,0.,-1.));
#477=DIRECTION('',(1.,0.,0.));
#478=DIRECTION('',(0.,0.,-1.));
#479=DIRECTION('',(1.,0.,0.));
#480=DIRECTION('',(0.,0.,-1.));
#481=DIRECTION('',(-1.,0.,0.));
#482=DIRECTION('',(1.,0.,0.));
#483=DIRECTION('',(0.,0.,-1.));
#484=DIRECTION('',(0.,-1.,0.));
#485=DIRECTION('',(0.,0.,-1.));
#486=DIRECTION('',(0.,-1.,0.));
#487=DIRECTION('',(0.,1.,0.));
#488=DIRECTION('',(0.,0.,1.));
#489=DIRECTION('',(1.,0.,0.));
#490=DIRECTION('',(0.,0.,-1.));
#491=DIRECTION('',(1.,0.,0.));
#492=DIRECTION('',(1.,0.,0.));
#493=DIRECTION('',(0.,0.,-1.));
#494=DIRECTION('',(0.,-1.,0.));
#495=DIRECTION('',(0.,0.,-1.));
#496=DIRECTION('',(0.,-1.,0.));
#497=DIRECTION('',(0.,1.,0.));
#498=DIRECTION('',(0.,0.,1.));
#499=DIRECTION('',(1.,0.,0.));
#500=DIRECTION('',(0.,0.,-1.));
#501=DIRECTION('',(1.,0.,0.));
#502=DIRECTION('',(1.,0.,0.));
#503=DIRECTION('',(0.,0.,-1.));
#504=DIRECTION('',(0.,-1.,0.));
#505=DIRECTION('',(0.,0.,-1.));
#506=DIRECTION('',(0.,-1.,0.));
#507=DIRECTION('',(0.,1.,0.));
#508=DIRECTION('',(0.,0.,1.));
#509=DIRECTION('',(1.,0.,0.));
#510=DIRECTION('',(0.,0.,-1.));
#511=DIRECTION('',(1.,0.,0.));
#512=DIRECTION('',(1.,0.,0.));
#513=DIRECTION('',(0.,0.,-1.));
#514=DIRECTION('',(0.,-1.,0.));
#515=DIRECTION('',(0.,-1.,0.));
#516=DIRECTION('',(0.,0.,1.));
#517=DIRECTION('',(1.,0.,0.));
#518=DIRECTION('',(3.86567905510152E-16,-1.,0.));
#519=DIRECTION('',(0.,0.,1.));
#520=DIRECTION('',(1.,0.,0.));
#521=DIRECTION('',(0.,-1.,0.));
#522=DIRECTION('',(0.,0.,1.));
#523=DIRECTION('',(1.,0.,0.));
#524=DIRECTION('',(1.,0.,0.));
#525=DIRECTION('',(0.,0.,-1.));
#526=DIRECTION('',(0.,-1.,0.));
#527=DIRECTION('',(-2.40100135083295E-16,1.,0.));
#528=DIRECTION('',(0.,0.,-1.));
#529=DIRECTION('',(1.,0.,0.));
#530=DIRECTION('',(0.,0.,-1.));
#531=DIRECTION('',(0.,-1.,0.));
#532=DIRECTION('',(2.40100135083295E-16,-1.,0.));
#533=DIRECTION('',(1.,2.40100135083295E-16,0.));
#534=DIRECTION('',(-1.,-2.40100135083295E-16,-1.28975723120952E-16));
#535=DIRECTION('',(1.,2.40100135083295E-16,0.));
#536=DIRECTION('',(0.,0.,1.));
#537=DIRECTION('',(0.,0.,1.));
#538=DIRECTION('',(1.,0.,0.));
#539=DIRECTION('',(1.28975723120952E-16,3.09670885438063E-32,-1.));
#540=DIRECTION('',(-1.,0.,-1.28975723120952E-16));
#541=DIRECTION('',(-2.40100135083295E-16,1.,0.));
#542=DIRECTION('',(-1.,-2.40100135083295E-16,0.));
#543=DIRECTION('',(2.40100135083295E-16,-1.,0.));
#544=DIRECTION('',(-2.40100135083295E-16,1.,0.));
#545=DIRECTION('',(0.,0.,1.));
#546=DIRECTION('',(1.,0.,0.));
#547=CARTESIAN_POINT('',(0.,0.,0.));
#548=CARTESIAN_POINT('',(-0.0292,-6.93889390390723E-18,0.012));
#549=CARTESIAN_POINT('',(-0.0292,-0.01795,0.002));
#550=CARTESIAN_POINT('',(-0.0292,-0.01795,0.002));
#551=CARTESIAN_POINT('',(-0.0292,0.01595,0.002));
#552=CARTESIAN_POINT('',(-0.0292,-0.01795,0.012));
#553=CARTESIAN_POINT('',(-0.0292,-0.01795,0.012));
#554=CARTESIAN_POINT('',(-0.0292,-6.93889390390723E-18,0.012));
#555=CARTESIAN_POINT('',(-0.0292,0.01595,0.012));
#556=CARTESIAN_POINT('',(-0.0292,0.01595,0.0219));
#557=CARTESIAN_POINT('',(-0.0282,-0.01795,0.012));
#558=CARTESIAN_POINT('',(-0.0282,-0.01795,0.));
#559=CARTESIAN_POINT('',(0.0292,-0.01795,0.));
#560=CARTESIAN_POINT('',(-0.0581,-0.01795,0.));
#561=CARTESIAN_POINT('',(0.0292,-0.01795,0.012));
#562=CARTESIAN_POINT('',(0.0292,-0.01795,0.012));
#563=CARTESIAN_POINT('',(-0.0282,-0.01795,0.012));
#564=CARTESIAN_POINT('',(-0.04265,-0.01795,0.002));
#565=CARTESIAN_POINT('',(-0.0561,-0.01795,0.002));
#566=CARTESIAN_POINT('',(-0.0561,-0.01795,0.01095));
#567=CARTESIAN_POINT('',(-0.0561,-0.01795,0.0199));
#568=CARTESIAN_POINT('',(-0.04265,-0.01795,0.0199));
#569=CARTESIAN_POINT('',(-0.0292,-0.01795,0.0199));
#570=CARTESIAN_POINT('',(-0.0292,-0.01795,0.0219));
#571=CARTESIAN_POINT('',(-0.0292,-0.01795,0.0219));
#572=CARTESIAN_POINT('',(-0.04365,-0.01795,0.0219));
#573=CARTESIAN_POINT('',(-0.0581,-0.01795,0.0219));
#574=CARTESIAN_POINT('',(-0.0581,-0.01795,0.0219));
#575=CARTESIAN_POINT('',(0.0292,0.001,0.012));
#576=CARTESIAN_POINT('',(0.0292,0.001,0.));
#577=CARTESIAN_POINT('',(0.0292,0.01795,0.));
#578=CARTESIAN_POINT('',(0.0292,0.01795,0.012));
#579=CARTESIAN_POINT('',(0.0292,0.01795,0.012));
#580=CARTESIAN_POINT('',(0.0292,0.001,0.012));
#581=CARTESIAN_POINT('',(0.0222,0.01795,0.012));
#582=CARTESIAN_POINT('',(0.0222,0.01795,0.));
#583=CARTESIAN_POINT('',(-0.0581,0.01795,0.));
#584=CARTESIAN_POINT('',(-0.0581,0.01795,0.0219));
#585=CARTESIAN_POINT('',(-0.0581,0.01795,0.0219));
#586=CARTESIAN_POINT('',(-0.04365,0.01795,0.0219));
#587=CARTESIAN_POINT('',(-0.0292,0.01795,0.0219));
#588=CARTESIAN_POINT('',(-0.0292,0.01795,0.0219));
#589=CARTESIAN_POINT('',(-0.0292,0.01795,0.012));
#590=CARTESIAN_POINT('',(-0.0222,0.01795,0.012));
#591=CARTESIAN_POINT('',(-0.0172,0.01795,0.012));
#592=CARTESIAN_POINT('',(-0.0172,0.01795,0.012));
#593=CARTESIAN_POINT('',(-0.0172,0.01795,0.002));
#594=CARTESIAN_POINT('',(0.0222,0.01795,0.002));
#595=CARTESIAN_POINT('',(0.0172,0.01795,0.002));
#596=CARTESIAN_POINT('',(0.0172,0.01795,0.012));
#597=CARTESIAN_POINT('',(0.0172,0.01795,0.012));
#598=CARTESIAN_POINT('',(0.0222,0.01795,0.012));
#599=CARTESIAN_POINT('',(0.0172,0.01695,0.012));
#600=CARTESIAN_POINT('',(0.0172,0.01795,0.002));
#601=CARTESIAN_POINT('',(0.0172,0.01595,0.002));
#602=CARTESIAN_POINT('',(0.0172,0.01595,0.012));
#603=CARTESIAN_POINT('',(0.0172,0.01595,0.012));
#604=CARTESIAN_POINT('',(0.0172,0.01695,0.012));
#605=CARTESIAN_POINT('',(0.0222,0.01595,0.012));
#606=CARTESIAN_POINT('',(0.0222,0.01595,0.002));
#607=CARTESIAN_POINT('',(0.0272,0.01595,0.002));
#608=CARTESIAN_POINT('',(0.0272,0.01595,0.012));
#609=CARTESIAN_POINT('',(0.0272,0.01595,0.012));
#610=CARTESIAN_POINT('',(0.0222,0.01595,0.012));
#611=CARTESIAN_POINT('',(0.0272,-3.46944695195361E-18,0.012));
#612=CARTESIAN_POINT('',(0.0272,-3.46944695195361E-18,0.002));
#613=CARTESIAN_POINT('',(0.0272,-0.01595,0.002));
#614=CARTESIAN_POINT('',(0.0272,-0.01595,0.012));
#615=CARTESIAN_POINT('',(0.0272,-0.01595,0.012));
#616=CARTESIAN_POINT('',(0.0272,-3.46944695195361E-18,0.012));
#617=CARTESIAN_POINT('',(0.,-0.01595,0.012));
#618=CARTESIAN_POINT('',(0.,-0.01595,0.002));
#619=CARTESIAN_POINT('',(-0.0272,-0.01595,0.002));
#620=CARTESIAN_POINT('',(-0.0272,-0.01595,0.012));
#621=CARTESIAN_POINT('',(-0.0272,-0.01595,0.012));
#622=CARTESIAN_POINT('',(0.,-0.01595,0.012));
#623=CARTESIAN_POINT('',(-0.0272,-3.46944695195361E-18,0.012));
#624=CARTESIAN_POINT('',(-0.0272,-3.46944695195361E-18,0.002));
#625=CARTESIAN_POINT('',(-0.0272,0.01595,0.002));
#626=CARTESIAN_POINT('',(-0.0272,0.01595,0.012));
#627=CARTESIAN_POINT('',(-0.0272,0.01595,0.012));
#628=CARTESIAN_POINT('',(-0.0272,-3.46944695195361E-18,0.012));
#629=CARTESIAN_POINT('',(-0.0222,0.01595,0.012));
#630=CARTESIAN_POINT('',(0.0222,0.01595,0.002));
#631=CARTESIAN_POINT('',(-0.0172,0.01595,0.002));
#632=CARTESIAN_POINT('',(-0.0172,0.01595,0.012));
#633=CARTESIAN_POINT('',(-0.0172,0.01595,0.012));
#634=CARTESIAN_POINT('',(-0.0222,0.01595,0.012));
#635=CARTESIAN_POINT('',(-0.0172,0.01695,0.012));
#636=CARTESIAN_POINT('',(-0.0172,0.01795,0.002));
#637=CARTESIAN_POINT('',(-0.0172,0.01695,0.012));
#638=CARTESIAN_POINT('',(-3.46944695195361E-18,-3.46944695195361E-18,0.012));
#639=CARTESIAN_POINT('',(-0.0292,-6.93889390390723E-18,0.012));
#640=CARTESIAN_POINT('',(-3.46944695195361E-18,-3.46944695195361E-18,0.));
#641=CARTESIAN_POINT('',(-0.0581,0.01695,0.));
#642=CARTESIAN_POINT('',(-3.46944695195361E-18,-3.46944695195361E-18,0.002));
#643=CARTESIAN_POINT('',(-0.0292,0.01695,0.0219));
#644=CARTESIAN_POINT('',(-0.0292,0.01695,0.0219));
#645=CARTESIAN_POINT('',(-0.0292,-0.01795,0.0199));
#646=CARTESIAN_POINT('',(-0.0292,0.01595,0.0199));
#647=CARTESIAN_POINT('',(-0.0292,0.01595,0.0219));
#648=CARTESIAN_POINT('',(-0.0581,0.01695,0.0219));
#649=CARTESIAN_POINT('',(-0.0581,0.01695,0.0219));
#650=CARTESIAN_POINT('',(-0.04365,0.01595,0.0219));
#651=CARTESIAN_POINT('',(-0.04265,0.01595,0.002));
#652=CARTESIAN_POINT('',(-0.0561,0.01595,0.002));
#653=CARTESIAN_POINT('',(-0.04265,0.01595,0.0199));
#654=CARTESIAN_POINT('',(-0.0561,0.01595,0.0199));
#655=CARTESIAN_POINT('',(-0.0561,0.01595,0.01095));
#656=CARTESIAN_POINT('',(-0.04365,0.01695,0.0219));
#657=CARTESIAN_POINT('',(-0.04265,-0.01795,0.002));
#658=CARTESIAN_POINT('',(-0.0561,-0.01795,0.002));
#659=CARTESIAN_POINT('',(-0.0561,-0.01795,0.01095));
#660=CARTESIAN_POINT('',(-0.0561,-0.01795,0.0199));
#661=CARTESIAN_POINT('',(-0.04265,-0.01795,0.0199));
#662=MECHANICAL_DESIGN_GEOMETRIC_PRESENTATION_REPRESENTATION('',(#414),
#663);
#663=(
GEOMETRIC_REPRESENTATION_CONTEXT(3)
GLOBAL_UNCERTAINTY_ASSIGNED_CONTEXT((#664))
GLOBAL_UNIT_ASSIGNED_CONTEXT((#667,#666,#665))
REPRESENTATION_CONTEXT('Part 1','TOP_LEVEL_ASSEMBLY_PART')
);
#664=UNCERTAINTY_MEASURE_WITH_UNIT(LENGTH_MEASURE(1.E-8),#667,
'DISTANCE_ACCURACY_VALUE','Maximum Tolerance applied to model');
#665=(
NAMED_UNIT(*)
SI_UNIT($,.STERADIAN.)
SOLID_ANGLE_UNIT()
);
#666=(
NAMED_UNIT(*)
PLANE_ANGLE_UNIT()
SI_UNIT($,.RADIAN.)
);
#667=(
LENGTH_UNIT()
NAMED_UNIT(*)
SI_UNIT($,.METRE.)
);
#668=PRODUCT_DEFINITION_SHAPE('','',#669);
#669=PRODUCT_DEFINITION('','',#671,#670);
#670=PRODUCT_DEFINITION_CONTEXT('',#677,'design');
#671=PRODUCT_DEFINITION_FORMATION_WITH_SPECIFIED_SOURCE('','',#673,
 .NOT_KNOWN.);
#672=PRODUCT_RELATED_PRODUCT_CATEGORY('','',(#673));
#673=PRODUCT('Part 1','Part 1','Part 1',(#675));
#674=PRODUCT_CATEGORY('','');
#675=PRODUCT_CONTEXT('',#677,'mechanical');
#676=APPLICATION_PROTOCOL_DEFINITION('international standard',
'ap242_managed_model_based_3d_engineering',2020,#677);
#677=APPLICATION_CONTEXT('managed model based 3d engineering');
ENDSEC;
END-ISO-10303-21;
